<svg xmlns="http://www.w3.org/2000/svg" viewBox="0 0 64 64" role="img" aria-label="臺灣南仙龍獅團圖示">
  <defs>
    <linearGradient id="bg" x1="0" y1="0" x2="1" y2="1">
      <stop offset="0" stop-color="#a84c3d"/>
      <stop offset="1" stop-color="#7a3025"/>
    </linearGradient>
    <linearGradient id="gold" x1="0" y1="0" x2="1" y2="1">
      <stop offset="0" stop-color="#d7b27b"/>
      <stop offset="1" stop-color="#b9925e"/>
    </linearGradient>
  </defs>
  <rect width="64" height="64" rx="16" fill="url(#bg)"/>
  <rect x="5" y="5" width="54" height="54" rx="13" fill="none" stroke="rgba(255,248,240,0.45)"/>
  <path d="M18 21c4-6 11-9 19-7 5 1 9 4 12 8-3-1-6-1-9 1 2 1 4 3 5 6-2-1-4-1-6 0 2 2 3 4 3 7 0 7-6 12-14 12-7 0-13-5-13-12 0-4 2-8 6-11-1-1-2-3-3-4z" fill="#fff7ef"/>
  <path d="M22 34c1-5 5-8 10-8 5 0 9 3 10 8-3-2-6-3-10-3-3 0-7 1-10 3z" fill="url(#gold)"/>
  <circle cx="27" cy="35" r="2.4" fill="#161311"/>
  <circle cx="37" cy="35" r="2.4" fill="#161311"/>
  <path d="M28 42c2 2 6 2 8 0" fill="none" stroke="#161311" stroke-linecap="round" stroke-width="2.4"/>
  <path d="M20 18l4 4M44 18l-4 4M17 28l5 1M47 28l-5 1" fill="none" stroke="url(#gold)" stroke-linecap="round" stroke-width="2.8"/>
</svg>
