<svg xmlns="http://www.w3.org/2000/svg" viewBox="0 0 64 64" role="img" aria-labelledby="title desc">
  <title id="title">臺灣南仙龍獅體育會可愛獅頭圖示</title>
  <desc id="desc">A playful lion dance mascot icon with red fur, gold accents, rosy cheeks, and small sparkles.</desc>
  <defs>
    <linearGradient id="badge" x1="8" y1="4" x2="56" y2="60" gradientUnits="userSpaceOnUse">
      <stop offset="0" stop-color="#fff5df"/>
      <stop offset="0.5" stop-color="#f3c86b"/>
      <stop offset="1" stop-color="#b93125"/>
    </linearGradient>
    <linearGradient id="mane" x1="17" y1="9" x2="48" y2="54" gradientUnits="userSpaceOnUse">
      <stop offset="0" stop-color="#ff745c"/>
      <stop offset="0.55" stop-color="#bf3027"/>
      <stop offset="1" stop-color="#7b201d"/>
    </linearGradient>
    <linearGradient id="face" x1="19" y1="18" x2="45" y2="51" gradientUnits="userSpaceOnUse">
      <stop offset="0" stop-color="#fffaf0"/>
      <stop offset="1" stop-color="#ffe3b5"/>
    </linearGradient>
  </defs>

  <rect x="3" y="3" width="58" height="58" rx="18" fill="url(#badge)"/>
  <path d="M10 46c8 9 35 13 46-2-1 9-8 15-23 15-15 0-23-5-23-13z" fill="#7a201b" opacity="0.26"/>
  <path d="M10 20c3 0 5-2 7-6 2 3 3 5 7 5 1-5 5-8 10-8 4 0 8 3 10 8 4 0 6-2 8-5 2 4 4 6 7 6-2 3-3 6-2 10 3 1 5 3 6 6-3 0-5 1-7 3 2 7-2 15-10 17-6 2-13-1-16-5-4 4-10 7-16 5-8-2-12-10-10-17-2-2-4-3-7-3 1-3 3-5 6-6 1-4 0-7-2-10z" fill="url(#mane)"/>

  <path d="M18 34c0-9 6-16 14-16s14 7 14 16c0 10-6 18-14 18s-14-8-14-18z" fill="url(#face)"/>
  <path d="M22 27c2-4 5-6 10-6s8 2 10 6c-4-1-7-1-10 1-3-2-6-2-10-1z" fill="#f7bf48"/>
  <path d="M31 17l4 4-4 4-4-4z" fill="#15a6a6" stroke="#fff5d6" stroke-width="1.4"/>

  <circle cx="25" cy="35" r="3.2" fill="#271512"/>
  <circle cx="39" cy="35" r="3.2" fill="#271512"/>
  <circle cx="26" cy="34" r="1" fill="#fff8ed"/>
  <circle cx="40" cy="34" r="1" fill="#fff8ed"/>
  <circle cx="21" cy="41" r="3.2" fill="#ff8f83" opacity="0.76"/>
  <circle cx="43" cy="41" r="3.2" fill="#ff8f83" opacity="0.76"/>

  <path d="M29 41c1.5 1.2 4.5 1.2 6 0" fill="none" stroke="#271512" stroke-width="2.2" stroke-linecap="round"/>
  <path d="M32 38l2.7 2.5H29.3z" fill="#271512"/>
  <path d="M15 22l5 4M49 22l-5 4M14 31l5 1.5M50 31l-5 1.5" fill="none" stroke="#ffe29a" stroke-width="3" stroke-linecap="round"/>

  <path d="M12 12l1.5 3 3 1.5-3 1.5-1.5 3-1.5-3-3-1.5 3-1.5z" fill="#fff8d6"/>
  <path d="M52 9l1 2 2 1-2 1-1 2-1-2-2-1 2-1z" fill="#fff8d6"/>
  <path d="M50 49c2 0 4-2 4-4 1 3 3 5 6 5-3 1-5 3-5 6-1-3-3-5-5-7z" fill="#23b0a8"/>
</svg>
